<svg xmlns="http://www.w3.org/2000/svg" viewBox="0 0 900 380" role="img" aria-labelledby="title desc">
  <title id="title">Vehículo AutoGuard</title><desc id="desc">Sedán oscuro de aspecto sólido con luces naranjas</desc>
  <defs>
    <linearGradient id="body" x1="0" y1="0" x2="0" y2="1"><stop stop-color="#4b535b"/><stop offset=".28" stop-color="#171c21"/><stop offset=".78" stop-color="#07090b"/><stop offset="1" stop-color="#242a30"/></linearGradient>
    <linearGradient id="glass" x1="0" y1="0" x2="1" y2="1"><stop stop-color="#72808c"/><stop offset=".35" stop-color="#263039"/><stop offset="1" stop-color="#080b0e"/></linearGradient>
    <linearGradient id="chrome" x1="0" y1="0" x2="1" y2="0"><stop stop-color="#5d646b"/><stop offset=".5" stop-color="#f0f2f3"/><stop offset="1" stop-color="#555c63"/></linearGradient>
    <radialGradient id="wheel"><stop offset="0" stop-color="#454c53"/><stop offset=".22" stop-color="#111418"/><stop offset=".7" stop-color="#050607"/><stop offset="1" stop-color="#252b30"/></radialGradient>
    <filter id="shadow"><feGaussianBlur stdDeviation="14"/></filter>
    <filter id="glow"><feGaussianBlur stdDeviation="8"/></filter>
  </defs>
  <ellipse cx="473" cy="325" rx="345" ry="32" fill="#000" opacity=".76" filter="url(#shadow)"/>
  <path d="M92 248c11-36 35-68 80-80l114-28c51-49 91-79 157-82h151c57 3 97 38 136 83l91 32c27 10 43 34 45 71l-4 39-50 21H133l-50-24Z" fill="url(#body)" stroke="#71787f" stroke-width="3"/>
  <path d="m309 139 58-57c20-18 47-25 82-25h139c34 5 66 33 103 81Z" fill="url(#glass)" stroke="#9ca3a9" stroke-width="3"/>
  <path d="M462 61v77m-160 6 402-1" fill="none" stroke="#c7ccd0" stroke-width="4" opacity=".65"/>
  <path d="M275 174c124-22 263-23 434-9" fill="none" stroke="url(#chrome)" stroke-width="3" opacity=".65"/>
  <path d="M171 178 92 203l-6 37 106-15Z" fill="#ff6a00" opacity=".92"/>
  <path d="M171 183 99 206l-4 12 86-12Z" fill="#ffd2a4"/>
  <path d="m736 178 91 30 15 28-111-18Z" fill="#8b1600"/>
  <path d="M95 265h735" stroke="#ff6a00" stroke-width="5" opacity=".75"/>
  <path d="M103 275c71 5 158 7 259 5m231 0c93 1 174-2 244-9" stroke="#8b9299" stroke-width="3"/>
  <g transform="translate(260 284)"><circle r="70" fill="url(#wheel)" stroke="#4f565c" stroke-width="6"/><circle r="43" fill="#0b0e11" stroke="#8a9197" stroke-width="4"/><circle r="26" fill="#2d3339"/><path d="M0-38V38M-38 0h76M-27-27l54 54M27-27l-54 54" stroke="#8d949a" stroke-width="5"/><circle r="9" fill="#ff6a00"/></g>
  <g transform="translate(696 284)"><circle r="70" fill="url(#wheel)" stroke="#4f565c" stroke-width="6"/><circle r="43" fill="#0b0e11" stroke="#8a9197" stroke-width="4"/><circle r="26" fill="#2d3339"/><path d="M0-38V38M-38 0h76M-27-27l54 54M27-27l-54 54" stroke="#8d949a" stroke-width="5"/><circle r="9" fill="#ff6a00"/></g>
  <path d="M520 171v92m-178-92-21 88m375-87 14 87" stroke="#2b3137" stroke-width="4"/>
  <path d="M478 187h38" stroke="#d6dadd" stroke-width="4" stroke-linecap="round"/>
  <ellipse cx="134" cy="215" rx="72" ry="24" fill="#ff6a00" opacity=".28" filter="url(#glow)"/>
</svg>
